<svg viewBox="0 0 24 24" fill="none" xmlns="http://www.w3.org/2000/svg">
  <path d="M12 2C7.30558 2 3.5 5.65715 3.5 10.1688C3.5 13.9276 6.13838 17.0924 9.73366 18.0428C9.81422 18.0588 9.875 18.1271 9.875 18.2085V18.5C9.875 19.8807 10.9943 21 12.375 21C13.7557 21 14.875 19.8807 14.875 18.5V18.2085C14.875 18.1271 14.9358 18.0588 15.0163 18.0428C18.6116 17.0924 21.25 13.9276 21.25 10.1688C21.25 5.65715 17.4444 2 12.75 2H12Z" fill="currentColor"/>
  <circle cx="8.2" cy="10.3" r="1.2" fill="white"/>
  <circle cx="15.8" cy="10.3" r="1.2" fill="white"/>
  <path d="M7.6 13.4C8.5 14.6 9.9 15.3 11.5 15.3H12.6C14.2 15.3 15.6 14.6 16.5 13.4" stroke="white" stroke-width="1.4" stroke-linecap="round"/>
  <circle cx="9.5" cy="20.2" r="1.1" fill="currentColor"/>
  <circle cx="14.5" cy="20.2" r="1.1" fill="currentColor"/>
</svg>
