<svg width="512" height="512" viewBox="0 0 512 512" fill="none" xmlns="http://www.w3.org/2000/svg">
  <rect width="512" height="512" fill="#1B4F43"/>
  <circle cx="256" cy="256" r="198" fill="#F3EDE2"/>
  <rect x="114" y="114" width="284" height="284" rx="68" fill="#1F6F5D"/>
  <path d="M190 331V182H254.067C300.132 182 326 204.837 326 243.496C326 283.957 298.814 308 249.453 308H220.293V331H190ZM220.293 283.227H247.772C277.53 283.227 296.519 269.645 296.519 244.35C296.519 218.641 278.097 206.773 247.489 206.773H220.293V283.227Z" fill="#FFF9F0"/>
  <path d="M332 157C332 140.431 345.431 127 362 127C378.569 127 392 140.431 392 157C392 173.569 378.569 187 362 187C345.431 187 332 173.569 332 157Z" fill="#E3B66D"/>
</svg>
