<svg width="512" height="512" viewBox="0 0 512 512" fill="none" xmlns="http://www.w3.org/2000/svg">
  <rect width="512" height="512" rx="112" fill="#F3EDE2"/>
  <rect x="52" y="52" width="408" height="408" rx="96" fill="#1F6F5D"/>
  <path d="M156 360V148H251.872C315.506 148 353 179.655 353 235.056C353 292.073 314.121 326 245.878 326H198.986V360H156ZM198.986 291.17H241.168C279.065 291.17 309.13 274.035 309.13 236.44C309.13 199.798 284.913 182.83 242.554 182.83H198.986V291.17Z" fill="#FFF9F0"/>
  <circle cx="349" cy="164" r="47" fill="#E3B66D"/>
  <path d="M349 135L356.295 156.705H379L360.353 170.09L367.648 191.795L349 178.41L330.352 191.795L337.647 170.09L319 156.705H341.705L349 135Z" fill="#1F6F5D"/>
</svg>
